name C:\Users\u0101727\Documents\MyRepositories\upper-imu-dc\Results\main_tracking\Case_66\kinematics.mot
datacolumns 10
datarows 28
range 3.50000000 3.77000000
endheader 
time	clav_prot	clav_elev	scapula_abduction	scapula_elevation	scapula_upward_rot	scapula_winging	plane_elv	shoulder_elv	axial_rot	
          3.50000000	        -44.43314503	          9.02846082	          0.87355100	         -1.63645725	         84.22199691	        -11.78986234	         37.79213992	         87.71989145	         -7.43315671	
          3.51000000	        -44.43259167	          9.03238200	          0.86663059	         -1.63488641	         84.21295661	        -11.79211441	         37.83638716	         87.69019056	         -7.39446267	
          3.52000000	        -44.43130608	          9.03557992	          0.86025962	         -1.63388692	         84.20277157	        -11.79391038	         37.87840734	         87.65941379	         -7.35572863	
          3.53000000	        -44.42931926	          9.03785928	          0.85445469	         -1.63359020	         84.19147067	        -11.79521573	         37.91784641	         87.62764594	         -7.31681972	
          3.54000000	        -44.42666683	          9.03904567	          0.84924185	         -1.63411017	         84.17911202	        -11.79599902	         37.95443627	         87.59499446	         -7.27751681	
          3.55000000	        -44.42339129	          9.03899543	          0.84464907	         -1.63553703	         84.16578139	        -11.79623609	         37.98799829	         87.56158843	         -7.23753328	
          3.56000000	        -44.41954355	          9.03760419	          0.84069912	         -1.63793196	         84.15158894	        -11.79591375	         38.01844222	         87.52757589	         -7.19654833	
          3.57000000	        -44.41518283	          9.03481369	          0.83740398	         -1.64132320	         84.13666403	        -11.79503239	         38.04576002	         87.49311950	         -7.15425348	
          3.58000000	        -44.41037441	          9.03061666	          0.83476242	         -1.64570339	         84.12114843	        -11.79360693	         38.07001538	         87.45839023	         -7.11040557	
          3.59000000	        -44.40518497	          9.02505898	          0.83276112	         -1.65102872	         84.10518817	        -11.79166582	         38.09133025	         87.42355972	         -7.06487936	
          3.60000000	        -44.39967650	          9.01823869	          0.83137826	         -1.65722025	         84.08892431	        -11.78924854	         38.10987090	         87.38879164	         -7.01771279	
          3.61000000	        -44.39390005	          9.01030150	          0.83058760	         -1.66416767	         84.07248293	        -11.78640222	         38.12583653	         87.35423282	         -6.96913995	
          3.62000000	        -44.38789085	          9.00143378	          0.83036079	         -1.67173489	         84.05596497	        -11.78317860	         38.13945238	         87.32000480	         -6.91960835	
          3.63000000	        -44.38166546	          8.99185425	          0.83066677	         -1.67976665	         84.03943654	        -11.77963188	         38.15096839	         87.28619628	         -6.86977930	
          3.64000000	        -44.37522097	          8.98180526	          0.83146890	         -1.68809534	         84.02292049	        -11.77581753	         38.16066254	         87.25285668	         -6.82051193	
          3.65000000	        -44.36853545	          8.97154415	          0.83272136	         -1.69654777	         84.00639003	        -11.77179157	         38.16884745	         87.21999130	         -6.77283309	
          3.66000000	        -44.36156846	          8.96133462	          0.83436733	         -1.70495143	         83.98976472	        -11.76760944	         38.17587818	         87.18755824	         -6.72789589	
          3.67000000	        -44.35426062	          8.95143857	          0.83634072	         -1.71314025	         83.97290919	        -11.76332384	         38.18215906	         87.15546758	         -6.68693018	
          3.68000000	        -44.34653129	          8.94210835	          0.83857272	         -1.72095943	         83.95563410	        -11.75898103	         38.18814793	         87.12358286	         -6.65118778	
          3.69000000	        -44.33827439	          8.93357951	          0.84100268	         -1.72826967	         83.93769882	        -11.75461579	         38.19435680	         87.09172500	         -6.62188547	
          3.70000000	        -44.32935276	          8.92606390	          0.84359180	         -1.73495098	         83.91881452	        -11.75024533	         38.20134898	         87.05967906	         -6.60014846	
          3.71000000	        -44.31959149	          8.91974309	          0.84633800	         -1.74090617	         83.89864673	        -11.74586281	         38.20973266	         87.02720379	         -6.58695735	
          3.72000000	        -44.30877116	          8.91476293	          0.84929033	         -1.74606372	         83.87681760	        -11.74143108	         38.22015122	         86.99404331	         -6.58310082	
          3.73000000	        -44.29662214	          8.91123022	          0.85256175	         -1.75037911	         83.85290873	        -11.73687767	         38.23327056	         86.95993942	         -6.58913583	
          3.74000000	        -44.28282074	          8.90921231	          0.85633925	         -1.75383410	         83.82646586	        -11.73209132	         38.24976442	         86.92464288	         -6.60535645	
          3.75000000	        -44.26698760	          8.90873883	          0.86089191	         -1.75643446	         83.79700651	        -11.72692019	         38.27029830	         86.88792258	         -6.63177251	
          3.76000000	        -44.24868777	          8.90980383	          0.86657827	         -1.75820710	         83.76403045	        -11.72117072	         38.29551260	         86.84957232	         -6.66809969	
          3.77000000	        -44.22743224	          8.91236652	          0.87385367	         -1.75919796	         83.72703291	        -11.71460669	         38.32600619	         86.80941510	         -6.71376314	
